A high definition movie clip from the hot colombian Lucia Tovar.

The video apear on foxes.com website

Format                           : Windows Media ( wmv )

File size                        : 473 MB

Duration                         : 16 min 6s

Overall bit rate                 : 4 106 Kbps

Maximum Overall bit rate         : 4 097 Kbps

Codec ID                         : WMV3
Codec ID/Info                    : Windows Media Video 9
Codec ID/Hint                    : WMV3
Description of the codec         : Windows Media Video V9 - 1280 x 720, 29.96 fps, 4000 kbps (CBR)

Width                            : 1 280 pixels
Height                           : 720 pixels
Display aspect ratio             : 16:9
Frame rate                       : 29.970 fps

Compression mode                 : Lossy
Bits/(Pixel*Frame)               : 0.145
Stream size                      : 461 MiB (97%)
Language                         : English (US)

Audio
ID                               : 1
Format                           : WMA
Format version                   : Version 2
Codec ID                         : 161
Codec ID/Info                    : Windows Media Audio
Description of the codec         : Windows Media Audio V9 Standard - 96 kbps, 44 kHz, 16 bit, Stereo (CBR)
Duration                         : 16mn 6s
Bit rate mode                    : Constant
Bit rate                         : 96.0 Kbps
Channel(s)                       : 2 channels
Sampling rate                    : 44.1 KHz
Bit depth                        : 16 bits
Stream size                      : 11.1 MiB (2%)
Language                         : English (US)

There are about 30 more videos . It's a bit like test to see if anyone is interested.

So please write few comment.

Enjoy !
